<svg width="24" height="24" xmlns="http://www.w3.org/2000/svg">

 <g>
  <title>Layer 1</title>
  <path id="svg_1" d="m20,8l-3,0l0,-4l-14,0c-1.11,0 -2,0.89 -2,2l0,11l2,0c0,1.66 1.34,3 3,3s3,-1.34 3,-3l6,0c0,1.66 1.34,3 3,3s3,-1.34 3,-3l2,0l0,-5l-3,-4m-14,10.5c-0.83,0 -1.5,-0.67 -1.5,-1.5s0.67,-1.5 1.5,-1.5s1.5,0.67 1.5,1.5s-0.67,1.5 -1.5,1.5m7,-7.5l-8,0l0,-2l8,0l0,2m5,7.5c-0.83,0 -1.5,-0.67 -1.5,-1.5s0.67,-1.5 1.5,-1.5s1.5,0.67 1.5,1.5s-0.67,1.5 -1.5,1.5m-1,-6.5l0,-2.5l2.5,0l1.96,2.5l-4.46,0" fill="#a5b7f3"/>
 </g>
</svg>